<svg width="229" height="72" viewBox="0 0 229 72" fill="none" xmlns="http://www.w3.org/2000/svg">
<path d="M14.8295 1.18182V71H0.0681818V1.18182H14.8295ZM85.3722 1.18182V71H72.6222L42.2472 27.0568H41.7358V71H26.9744V1.18182H39.929L70.0653 45.0909H70.679V1.18182H85.3722ZM143.864 23.75C143.386 22.0909 142.716 20.625 141.852 19.3523C140.989 18.0568 139.932 16.9659 138.682 16.0795C137.455 15.1705 136.045 14.4773 134.455 14C132.886 13.5227 131.148 13.2841 129.239 13.2841C125.67 13.2841 122.534 14.1705 119.83 15.9432C117.148 17.7159 115.057 20.2955 113.557 23.6818C112.057 27.0455 111.307 31.1591 111.307 36.0227C111.307 40.8864 112.045 45.0227 113.523 48.4318C115 51.8409 117.091 54.4432 119.795 56.2386C122.5 58.0114 125.693 58.8977 129.375 58.8977C132.716 58.8977 135.568 58.3068 137.932 57.125C140.318 55.9205 142.136 54.2273 143.386 52.0455C144.659 49.8636 145.295 47.2841 145.295 44.3068L148.295 44.75H130.295V33.6364H159.511V42.4318C159.511 48.5682 158.216 53.8409 155.625 58.25C153.034 62.6364 149.466 66.0227 144.92 68.4091C140.375 70.7727 135.17 71.9545 129.307 71.9545C122.761 71.9545 117.011 70.5114 112.057 67.625C107.102 64.7159 103.239 60.5909 100.466 55.25C97.7159 49.8864 96.3409 43.5227 96.3409 36.1591C96.3409 30.5 97.1591 25.4545 98.7955 21.0227C100.455 16.5682 102.773 12.7955 105.75 9.70455C108.727 6.61363 112.193 4.26136 116.148 2.64772C120.102 1.03409 124.386 0.22727 129 0.22727C132.955 0.22727 136.636 0.806816 140.045 1.96591C143.455 3.10227 146.477 4.71591 149.114 6.80682C151.773 8.89772 153.943 11.3864 155.625 14.2727C157.307 17.1364 158.386 20.2955 158.864 23.75H143.864ZM228.997 1.18182V71H216.247L185.872 27.0568H185.361V71H170.599V1.18182H183.554L213.69 45.0909H214.304V1.18182H228.997Z" fill="#C52525"/>
</svg>
